<?xml version="1.0" encoding="UTF-8" standalone="no"?><!DOCTYPE svg PUBLIC "-//W3C//DTD SVG 1.1//EN" "http://www.w3.org/Graphics/SVG/1.1/DTD/svg11.dtd"><svg width="100%" height="100%" viewBox="0 0 13 13" version="1.1" xmlns="http://www.w3.org/2000/svg" xmlns:xlink="http://www.w3.org/1999/xlink" xml:space="preserve" style="fill-rule:evenodd;clip-rule:evenodd;stroke-linejoin:round;stroke-miterlimit:1.41421;"><path id="Checked-Circle-Icon" d="M6.148,12.296c-3.396,0 -6.148,-2.753 -6.148,-6.148c0,-3.395 2.752,-6.148 6.148,-6.148c3.395,0 6.148,2.753 6.148,6.148c0,3.395 -2.753,6.148 -6.148,6.148Zm3.238,-8.333c-0.315,-0.302 -0.825,-0.302 -1.14,0l-2.866,2.722l-0.819,-0.761c-0.314,-0.302 -0.824,-0.302 -1.139,0c-0.315,0.302 -0.315,0.791 0,1.093l1.388,1.308c0.315,0.302 0.825,0.302 1.14,0l3.436,-3.268c0.314,-0.302 0.314,-0.791 0,-1.094Z" style="fill:#03bd5b;"/></svg>