<?xml version="1.0" encoding="UTF-8" standalone="no"?><!DOCTYPE svg PUBLIC "-//W3C//DTD SVG 1.1//EN" "http://www.w3.org/Graphics/SVG/1.1/DTD/svg11.dtd"><svg width="100%" height="100%" viewBox="0 0 24 17" version="1.1" xmlns="http://www.w3.org/2000/svg" xmlns:xlink="http://www.w3.org/1999/xlink" xml:space="preserve" style="fill-rule:evenodd;clip-rule:evenodd;stroke-linejoin:round;stroke-miterlimit:1.41421;"><path id="Menu-Icon" d="M22.5,10l-21,0c-0.829,0 -1.5,-0.672 -1.5,-1.501c0,-0.828 0.671,-1.499 1.5,-1.499l21,0c0.828,0 1.5,0.671 1.5,1.499c0,0.829 -0.672,1.501 -1.5,1.501Zm0,-7l-21,0c-0.829,0 -1.5,-0.672 -1.5,-1.5c0,-0.829 0.671,-1.5 1.5,-1.5l21,0c0.828,0 1.5,0.671 1.5,1.5c0,0.828 -0.672,1.5 -1.5,1.5Zm-21,11l21,0c0.828,0 1.5,0.671 1.5,1.5c0,0.828 -0.672,1.499 -1.5,1.499l-21,0c-0.829,0 -1.5,-0.671 -1.5,-1.499c0,-0.829 0.671,-1.5 1.5,-1.5Z"/></svg>
