<?xml version="1.0" encoding="UTF-8" standalone="no"?><!DOCTYPE svg PUBLIC "-//W3C//DTD SVG 1.1//EN" "http://www.w3.org/Graphics/SVG/1.1/DTD/svg11.dtd"><svg width="100%" height="100%" viewBox="0 0 23 24" version="1.1" xmlns="http://www.w3.org/2000/svg" xmlns:xlink="http://www.w3.org/1999/xlink" xml:space="preserve" style="fill-rule:evenodd;clip-rule:evenodd;stroke-linejoin:round;stroke-miterlimit:1.41421;"><path id="Turn-Off-Icon" d="M11.5,24l0,-3c4.694,0 8.5,-3.805 8.5,-8.5c0,-3.119 -1.687,-5.836 -4.192,-7.313c-0.125,-0.071 -0.248,-0.165 -0.279,-0.188c-0.214,-0.179 -0.528,-0.545 -0.532,-1.155c0,-0.83 0.673,-1.503 1.503,-1.503c0.128,0.001 0.47,0.049 0.873,0.281c3.367,2.005 5.627,5.674 5.627,9.878c0,6.351 -5.149,11.5 -11.5,11.5Zm4.029,-19.001c0.005,0.005 0.011,0.01 0.016,0.015c-0.027,-0.023 -0.029,-0.024 -0.016,-0.015Zm-4.029,7.001c-0.828,0 -1.5,-0.671 -1.5,-1.5l0,-9c0,-0.829 0.672,-1.5 1.5,-1.5c0.828,0 1.5,0.671 1.5,1.5l0,9c0,0.829 -0.672,1.5 -1.5,1.5Zm-4.029,-7.036c-0.031,0.023 -0.154,0.116 -0.279,0.187c-2.505,1.48 -4.192,4.202 -4.192,7.328c0,4.703 3.806,8.515 8.5,8.515l0,3.006c-6.351,0 -11.5,-5.158 -11.5,-11.521c0,-4.212 2.26,-7.888 5.627,-9.897c0.403,-0.232 0.745,-0.28 0.873,-0.282c0.83,0 1.503,0.674 1.503,1.506c-0.004,0.612 -0.318,0.978 -0.532,1.158Zm-0.016,0.014c0.005,-0.004 0.011,-0.01 0.016,-0.014c0.013,-0.01 0.011,-0.009 -0.016,0.014Z"/></svg>
