<?xml version="1.0" encoding="UTF-8" standalone="no"?><!DOCTYPE svg PUBLIC "-//W3C//DTD SVG 1.1//EN" "http://www.w3.org/Graphics/SVG/1.1/DTD/svg11.dtd"><svg width="100%" height="100%" viewBox="0 0 25 24" version="1.1" xmlns="http://www.w3.org/2000/svg" xmlns:xlink="http://www.w3.org/1999/xlink" xml:space="preserve" style="fill-rule:evenodd;clip-rule:evenodd;stroke-linejoin:round;stroke-miterlimit:1.41421;"><path id="Settings-Icon" d="M23,14l-2.251,0c-0.228,0.997 -0.636,1.919 -1.161,2.76l1.604,1.604c0.391,0.39 0.391,1.023 0,1.414l-1.414,1.414c-0.39,0.391 -1.024,0.391 -1.414,0l-1.596,-1.595c-0.841,0.532 -1.766,0.944 -2.768,1.172l0,2.231c0,0.552 -0.448,1 -1,1l-2,0c-0.552,0 -1,-0.448 -1,-1l0,-2.231c-1.002,-0.228 -1.927,-0.64 -2.768,-1.172l-1.596,1.595c-0.39,0.391 -1.024,0.391 -1.414,0l-1.414,-1.414c-0.391,-0.391 -0.391,-1.024 0,-1.414l1.604,-1.604c-0.525,-0.841 -0.933,-1.763 -1.161,-2.76l-2.251,0c-0.552,0 -1,-0.448 -1,-1l0,-2c0,-0.552 0.448,-1 1,-1l2.251,0c0.228,-0.996 0.636,-1.918 1.161,-2.759l-1.604,-1.605c-0.391,-0.391 -0.391,-1.024 0,-1.414l1.414,-1.415c0.39,-0.39 1.024,-0.39 1.414,0l1.596,1.596c0.841,-0.532 1.766,-0.944 2.768,-1.173l0,-2.23c0,-0.552 0.448,-1 1,-1l2,0c0.552,0 1,0.448 1,1l0,2.23c1.002,0.229 1.927,0.641 2.768,1.173l1.596,-1.596c0.39,-0.39 1.024,-0.39 1.414,0l1.414,1.415c0.391,0.39 0.391,1.023 0,1.414l-1.604,1.605c0.525,0.841 0.933,1.763 1.161,2.759l2.251,0c0.552,0 1,0.448 1,1l0,2c0,0.552 -0.448,1 -1,1Zm-11,-8c-3.314,0 -6,2.686 -6,6c0,3.314 2.686,6 6,6c3.314,0 6,-2.686 6,-6c0,-3.314 -2.686,-6 -6,-6Zm0,9c-1.657,0 -3,-1.344 -3,-3c0,-1.657 1.343,-3 3,-3c1.657,0 3,1.343 3,3c0,1.656 -1.343,3 -3,3Z" style="fill:#8393a7;"/></svg>